<svg aria-hidden="true" style="position:absolute;width:0;height:0;overflow:hidden" xmlns="http://www.w3.org/2000/svg">
  <defs>
  <symbol id="icon-logo" viewBox="0 0 101 32">
  <path fill="#ed4b5e" style="fill: var(--color1, #ed4b5e)" d="M5.249 0.933c-1.606 0.433-2.824 1.299-3.394 2.417-0.632 1.238-0.704 2.33-0.648 9.844 0.053 7.173 0.056 7.234 0.449 8.102 0.533 1.18 1.877 2.43 3.055 2.839 0.689 0.239 1.385 0.32 2.768 0.32 2.287 0 3.257-0.301 4.457-1.378 1.536-1.382 1.841-2.413 1.844-6.227l0.002-2.732h-5.042v2.511c0 2.368-0.021 2.537-0.378 2.933-0.207 0.232-0.492 0.433-0.63 0.449-1.515 0.172-1.513 0.182-1.513-7.631 0-6.112 0.023-6.658 0.301-6.999 0.381-0.471 1.423-0.536 1.845-0.115 0.239 0.239 0.302 0.672 0.347 2.386l0.056 2.095h5.050l-0.059-2.58c-0.060-2.566-0.064-2.586-0.65-3.739-0.667-1.312-1.588-2.063-3.072-2.503-1.071-0.318-3.595-0.314-4.788 0.007zM19.475 0.925c-1.082 0.347-2.319 1.219-2.862 2.016-0.99 1.455-1.067 2.155-1.067 9.833 0 5.326 0.053 7.154 0.225 7.732 0.615 2.075 2.16 3.396 4.608 3.938 0.377 0.083 0.462 0.193 0.462 0.603 0 0.384 0.077 0.501 0.327 0.501 0.179 0 0.373-0.078 0.431-0.171 0.181-0.295 0.37-0.032 0.483 0.672 0.059 0.372 0.334 1.246 0.61 1.941 0.561 1.413 0.622 1.955 0.25 2.263-0.312 0.259-0.323 0.572-0.028 0.817 0.171 0.143 0.335 0.069 0.699-0.311 0.609-0.635 0.595-1.234-0.064-2.895-0.273-0.689-0.549-1.525-0.611-1.86-0.111-0.589-0.099-0.607 0.365-0.574 0.443 0.031 0.476-0.008 0.437-0.509-0.036-0.468 0.021-0.559 0.42-0.655 1.658-0.399 3.389-1.986 3.833-3.515 0.22-0.757 0.252-2.019 0.209-8.342-0.049-7.258-0.060-7.474-0.425-8.375-0.541-1.334-1.239-2.090-2.511-2.715-1.028-0.506-1.247-0.549-3.061-0.594-1.383-0.034-2.181 0.024-2.732 0.201zM30.422 12.606v11.598h5.042l-0.006-4.328c-0.003-2.381-0.077-5.118-0.163-6.084s-0.137-1.777-0.111-1.803 0.611 2.71 1.298 6.083l1.25 6.13 5.295 0.001v-23.195h-5.089l0.105 3.992c0.057 2.195 0.142 4.559 0.188 5.252l0.083 1.261-0.585-2.353c0.45 2.412 0.011 0.648-0.42-1.12l-0.852-4.133-0.688-2.899h-5.349v11.598zM45.382 12.606v11.598h5.21v-10.58l4.959-0.093 0.047-2.226 0.047-2.227h-5.052v-3.53h5.042v-4.538h-10.253v11.598zM57.147 12.606v11.598h10.421v-4.538h-5.379v-6.042l4.959-0.093 0.047-2.226 0.047-2.227h-5.052v-3.53h5.211v-4.538h-10.254v11.598zM68.11 3.319l0.047 2.312 2.773 0.097v18.476h5.21v-18.489h2.858v-4.706h-10.935l0.047 2.311zM79.166 3.362v2.353h2.858v18.489h5.042v-18.489h2.857v-4.706h-10.757v2.353zM91.268 12.606v11.598h5.042v-23.195h-5.042v11.598z"></path>
  </symbol>
  <symbol id="icon-call" viewBox="0 0 32 32">
  <path d="M6.933 1.712c-0.891 0.123-1.685 0.47-2.345 0.98l0.011-0.008c-0.788 0.608-1.711 1.721-2.141 2.581-0.965 1.933-1.025 4.433-0.167 7.055 1.725 5.269 7.444 11.871 13.428 15.5 0.967 0.587 2.508 1.352 3.401 1.689 2.407 0.911 4.755 1.051 6.665 0.399 1.792-0.611 3.3-1.951 4.075-3.62 0.784-1.692 0.457-3.448-0.829-4.459-0.553-0.435-4.692-3.34-5.061-3.553-0.62-0.357-1.165-0.524-1.727-0.528-1.005-0.008-1.655 0.335-2.845 1.5l-0.735 0.72-0.172-0.099c-1.507-0.863-5.143-4.448-6.264-6.177l-0.235-0.361 0.675-0.705c1.541-1.615 1.867-2.616 1.304-4.025-0.22-0.548-0.241-0.583-2.155-3.293-0.956-1.355-1.792-2.483-1.977-2.669-0.701-0.704-1.797-1.053-2.907-0.925zM8.084 3.817c0.169 0.080 0.368 0.231 0.475 0.36 0.443 0.537 3.301 4.633 3.476 4.981 0.364 0.727 0.261 0.972-0.927 2.211-0.449 0.468-0.863 0.941-0.92 1.053-0.239 0.468-0.232 1.189 0.015 1.729 0.673 1.469 4.313 5.344 6.483 6.899 1.077 0.773 1.655 0.992 2.319 0.877 0.492-0.084 0.644-0.181 1.343-0.86 0.863-0.836 1.163-1.092 1.435-1.22 0.343-0.161 0.584-0.145 1.020 0.065 0.425 0.204 4.993 3.421 5.204 3.664 0.292 0.336 0.359 1.035 0.156 1.623-0.343 0.987-1.347 2.057-2.428 2.587-0.723 0.355-1.307 0.485-2.293 0.517-0.097 0.004-0.21 0.006-0.324 0.006-0.872 0-1.712-0.136-2.5-0.388l0.058 0.016c-3.791-1.125-8.737-4.839-12.387-9.299-2.403-2.935-3.972-5.84-4.456-8.243-0.164-0.82-0.177-2.356-0.025-3.007 0.173-0.683 0.435-1.283 0.777-1.828l-0.015 0.026c0.323-0.485 1.019-1.193 1.435-1.459 0.721-0.463 1.516-0.581 2.083-0.313z"></path>
  </symbol>
  <symbol id="icon-mail" viewBox="0 0 32 32">
  <path d="M7.904 3.763c-1.279 0.164-2.473 0.589-3.372 1.199-0.555 0.408-1.033 0.873-1.443 1.395l-0.012 0.016c-0.579 0.78-1.028 1.876-1.236 3.015-0.152 0.836-0.185 2.027-0.185 6.613s0.033 5.777 0.185 6.613c0.288 1.579 0.948 2.867 1.956 3.82 1.072 1.013 2.396 1.588 4.169 1.807 0.959 0.119 15.108 0.119 16.067 0 2.641-0.327 4.491-1.548 5.487-3.625 0.467-0.973 0.685-1.889 0.773-3.255 0.067-1.040 0.067-9.68 0-10.72-0.088-1.365-0.307-2.281-0.773-3.255-0.993-2.071-2.827-3.283-5.483-3.624-0.539-0.069-1.709-0.080-8.107-0.076-5.863 0.005-7.596 0.021-8.027 0.077zM23.616 5.709c2.719 0.295 4.239 1.701 4.62 4.276 0.125 0.84 0.125 11.189 0 12.029-0.357 2.415-1.687 3.784-4.081 4.208-0.521 0.092-1.019 0.097-8.155 0.097s-7.633-0.005-8.155-0.097c-2.395-0.424-3.723-1.793-4.081-4.208-0.125-0.84-0.125-11.189 0-12.029 0.376-2.537 1.9-3.973 4.529-4.269 0.624-0.071 14.679-0.076 15.323-0.007zM9.047 11.051c-0.158 0.058-0.294 0.144-0.405 0.255l0-0c-0.18 0.178-0.292 0.425-0.292 0.698 0 0.241 0.087 0.461 0.231 0.632l-0.001-0.001c0.283 0.328 4.597 3.721 5.015 3.943 0.695 0.371 1.233 0.501 2.195 0.531 0.649 0.020 0.924 0.005 1.28-0.067 0.597-0.12 1.176-0.347 1.601-0.625 0.496-0.327 4.717-3.699 4.815-3.847 0.375-0.572 0.080-1.357-0.569-1.52-0.483-0.121-0.504-0.108-2.944 1.835-1.231 0.981-2.372 1.855-2.536 1.943-0.4 0.213-0.883 0.32-1.453 0.32-0.024 0.001-0.052 0.001-0.080 0.001-0.497 0-0.965-0.123-1.375-0.341l0.016 0.008c-0.169-0.091-1.297-0.956-2.507-1.921-1.208-0.967-2.248-1.776-2.311-1.801-0.12-0.046-0.259-0.073-0.404-0.073-0.098 0-0.192 0.012-0.283 0.035l0.008-0.002z"></path>
  </symbol>
  <symbol id="icon-burger" viewBox="0 0 32 32">
  <path d="M5.997 1.705c-2.013 0.179-3.373 1.129-3.975 2.777-0.307 0.839-0.34 1.191-0.34 3.517 0 1.765 0.015 2.187 0.092 2.597 0.376 2.019 1.609 3.252 3.628 3.628 0.411 0.077 0.832 0.092 2.597 0.092s2.187-0.015 2.597-0.092c1.684-0.315 2.847-1.245 3.38-2.708 0.307-0.839 0.34-1.191 0.34-3.517s-0.033-2.679-0.34-3.517c-0.531-1.453-1.7-2.397-3.352-2.701-0.532-0.099-3.779-0.152-4.628-0.076zM21.997 1.705c-2.013 0.179-3.373 1.129-3.975 2.777-0.307 0.839-0.34 1.191-0.34 3.517 0 1.765 0.015 2.187 0.092 2.597 0.376 2.019 1.609 3.252 3.628 3.628 0.411 0.077 0.832 0.092 2.597 0.092s2.187-0.015 2.597-0.092c1.684-0.315 2.847-1.245 3.38-2.708 0.307-0.839 0.34-1.191 0.34-3.517s-0.033-2.679-0.34-3.517c-0.531-1.453-1.7-2.397-3.352-2.701-0.532-0.099-3.779-0.152-4.628-0.076zM5.997 17.705c-2.013 0.179-3.373 1.129-3.975 2.777-0.307 0.839-0.34 1.191-0.34 3.517 0 1.765 0.015 2.187 0.092 2.597 0.376 2.019 1.609 3.252 3.628 3.628 0.411 0.077 0.832 0.092 2.597 0.092s2.187-0.015 2.597-0.092c1.684-0.315 2.847-1.245 3.38-2.708 0.307-0.839 0.34-1.191 0.34-3.517s-0.033-2.679-0.34-3.517c-0.531-1.453-1.7-2.397-3.352-2.701-0.532-0.099-3.779-0.152-4.628-0.076zM21.997 17.705c-2.013 0.179-3.373 1.129-3.975 2.777-0.307 0.839-0.34 1.191-0.34 3.517 0 1.765 0.015 2.187 0.092 2.597 0.376 2.019 1.609 3.252 3.628 3.628 0.411 0.077 0.832 0.092 2.597 0.092s2.187-0.015 2.597-0.092c1.684-0.315 2.847-1.245 3.38-2.708 0.307-0.839 0.34-1.191 0.34-3.517s-0.033-2.679-0.34-3.517c-0.531-1.453-1.7-2.397-3.352-2.701-0.532-0.099-3.779-0.152-4.628-0.076z"></path>
  </symbol>
  <symbol id="icon-close" viewBox="0 0 32 32">
  <path d="M10.773 1.709c-5.429 0.284-8.247 2.685-8.929 7.612-0.151 1.083-0.188 2.433-0.188 6.679 0 6.005 0.080 7.031 0.691 8.867 1.029 3.084 3.261 4.768 7.023 5.296 1.012 0.141 2.5 0.183 6.631 0.183s5.619-0.041 6.631-0.183c3.293-0.463 5.364-1.779 6.565-4.176 0.643-1.28 0.988-2.828 1.097-4.911 0.068-1.292 0.068-8.86 0-10.152-0.084-1.593-0.265-2.669-0.637-3.783-0.813-2.433-2.364-3.985-4.789-4.795-1.149-0.383-2.169-0.555-3.792-0.64-1.139-0.060-9.139-0.057-10.301 0.003zM22.4 3.805c3.715 0.616 5.219 2.133 5.797 5.848 0.088 0.561 0.096 1.099 0.096 6.347s-0.008 5.785-0.096 6.347c-0.581 3.731-2.12 5.269-5.851 5.851-0.561 0.088-1.099 0.096-6.347 0.096s-5.785-0.008-6.347-0.096c-3.72-0.58-5.276-2.129-5.848-5.824-0.092-0.593-0.099-1.055-0.099-6.373 0-6.337-0.005-6.217 0.352-7.616 0.684-2.675 2.237-4.019 5.221-4.517 0.973-0.164 1.451-0.175 6.987-0.164 5.017 0.009 5.629 0.019 6.133 0.103zM11.813 11.329c-0.223 0.115-0.398 0.298-0.5 0.521l-0.003 0.007c-0.035 0.107-0.055 0.231-0.055 0.36 0 0.158 0.030 0.309 0.086 0.447l-0.003-0.008c0.047 0.093 0.796 0.884 1.667 1.757l1.58 1.587-1.58 1.587c-0.871 0.873-1.62 1.664-1.667 1.757-0.053 0.13-0.083 0.281-0.083 0.439 0 0.128 0.020 0.252 0.057 0.368l-0.002-0.009c0.076 0.205 0.307 0.441 0.515 0.531 0.229 0.099 0.621 0.093 0.831-0.012 0.093-0.047 0.884-0.796 1.757-1.667l1.587-1.58 1.587 1.58c0.873 0.871 1.664 1.62 1.757 1.667 0.209 0.105 0.601 0.111 0.831 0.012 0.23-0.112 0.409-0.297 0.512-0.524l0.003-0.007c0.035-0.108 0.055-0.231 0.055-0.36 0-0.158-0.030-0.309-0.086-0.447l0.003 0.008c-0.047-0.093-0.796-0.884-1.667-1.757l-1.58-1.587 1.58-1.587c0.871-0.873 1.62-1.664 1.667-1.757 0.105-0.209 0.111-0.601 0.012-0.831-0.112-0.23-0.297-0.409-0.524-0.512l-0.007-0.003c-0.108-0.035-0.231-0.055-0.36-0.055-0.158 0-0.309 0.030-0.447 0.086l0.008-0.003c-0.093 0.047-0.884 0.796-1.757 1.667l-1.587 1.58-1.587-1.58c-0.873-0.871-1.664-1.62-1.757-1.667-0.207-0.103-0.623-0.108-0.843-0.009z"></path>
  </symbol>
   </defs>
</svg>

